<svg xmlns="http://www.w3.org/2000/svg" version="1.1" xmlns:xlink="http://www.w3.org/1999/xlink" xmlns:svgjs="http://svgjs.com/svgjs" width="1440" height="560" preserveAspectRatio="none" viewBox="0 0 1440 560"><g mask="url(&quot;#SvgjsMask1305&quot;)" fill="none"><rect width="1440" height="560" x="0" y="0" fill="rgba(255, 255, 255, 1)"></rect><path d="M -581.2934432714688,335 C -485.29,296 -293.29,124.2 -101.2934432714688,140 C 90.71,155.8 186.71,406.2 378.7065567285312,414 C 570.71,421.8 666.71,196.6 858.7065567285312,179 C 1050.71,161.4 1222.45,306.8 1338.7065567285313,326 C 1454.97,345.2 1419.74,285.2 1440,275" stroke="rgba(51, 121, 194, 0.58)" stroke-width="2"></path><path d="M -474.2712679937991,227 C -378.27,262 -186.27,413.4 5.7287320062008895,402 C 197.73,390.6 293.73,194.2 485.7287320062009,170 C 677.73,145.8 773.73,282.8 965.7287320062009,281 C 1157.73,279.2 1350.87,156.2 1445.728732006201,161 C 1540.58,165.8 1441.15,276.2 1440,305" stroke="rgba(51, 121, 194, 0.58)" stroke-width="2"></path><path d="M -317.9923216896958,153 C -221.99,194.6 -29.99,343.2 162.00767831030416,361 C 354.01,378.8 450.01,231.8 642.0076783103042,242 C 834.01,252.2 930.01,408 1122.007678310304,412 C 1314.01,416 1538.41,280.6 1602.007678310304,262 C 1665.61,243.4 1472.4,307.6 1440,319" stroke="rgba(51, 121, 194, 0.58)" stroke-width="2"></path><path d="M -816.2075969815596,299 C -720.21,282.8 -528.21,216.2 -336.2075969815597,218 C -144.21,219.8 -48.21,305.2 143.79240301844033,308 C 335.79,310.8 431.79,234.4 623.7924030184404,232 C 815.79,229.6 940.55,309.6 1103.7924030184404,296 C 1267.03,282.4 1372.76,190.4 1440,164" stroke="rgba(51, 121, 194, 0.58)" stroke-width="2"></path><path d="M -126.6412449686431,342 C -30.64,320.6 161.36,225.2 353.3587550313569,235 C 545.36,244.8 641.36,410.2 833.3587550313568,391 C 1025.36,371.8 1121.36,147.8 1313.3587550313568,139 C 1505.36,130.2 1768.03,330.8 1793.3587550313568,347 C 1818.69,363.2 1510.67,245.4 1440,220" stroke="rgba(51, 121, 194, 0.58)" stroke-width="2"></path></g><defs><mask id="SvgjsMask1305"><rect width="1440" height="560" fill="#ffffff"></rect></mask></defs></svg>